<mxfile host="app.diagrams.net" agent="Mozilla/5.0 (Windows NT 10.0; Win64; x64) AppleWebKit/537.36 (KHTML, like Gecko) Chrome/127.0.0.0 Safari/537.36 Edg/127.0.0.0" version="24.7.13">
  <diagram name="Page-1" id="EfojRJBAaMHsO4DkUP2c">
    <mxGraphModel dx="1272" dy="1729" grid="0" gridSize="10" guides="1" tooltips="1" connect="1" arrows="1" fold="1" page="0" pageScale="1" pageWidth="850" pageHeight="1100" math="0" shadow="0">
      <root>
        <mxCell id="0" />
        <mxCell id="1" parent="0" />
        <mxCell id="V57hiWhhxDjBTrtFA19z-1" value="&lt;table style=&quot;text-align: start;&quot;&gt;&lt;tbody&gt;&lt;tr&gt;&lt;td value=&quot;1&quot; class=&quot;line-number&quot;&gt;&lt;/td&gt;&lt;td class=&quot;line-content&quot;&gt;&lt;span class=&quot;html-doctype&quot;&gt;&amp;lt;!DOCTYPE html&amp;gt;&lt;/span&gt;&lt;/td&gt;&lt;/tr&gt;&lt;tr&gt;&lt;td value=&quot;2&quot; class=&quot;line-number&quot;&gt;&lt;/td&gt;&lt;td class=&quot;line-content&quot;&gt;&lt;span class=&quot;html-tag&quot;&gt;&amp;lt;html &lt;span class=&quot;html-attribute-name&quot;&gt;lang&lt;/span&gt;=&quot;&lt;span class=&quot;html-attribute-value&quot;&gt;en&lt;/span&gt;&quot;&amp;gt;&lt;/span&gt;&lt;/td&gt;&lt;/tr&gt;&lt;tr&gt;&lt;td value=&quot;3&quot; class=&quot;line-number&quot;&gt;&lt;/td&gt;&lt;td class=&quot;line-content&quot;&gt;&lt;span class=&quot;html-tag&quot;&gt;&amp;lt;head&amp;gt;&lt;/span&gt;&lt;/td&gt;&lt;/tr&gt;&lt;tr&gt;&lt;td value=&quot;4&quot; class=&quot;line-number&quot;&gt;&lt;/td&gt;&lt;td class=&quot;line-content&quot;&gt;    &lt;span class=&quot;html-tag&quot;&gt;&amp;lt;meta &lt;span class=&quot;html-attribute-name&quot;&gt;charset&lt;/span&gt;=&quot;&lt;span class=&quot;html-attribute-value&quot;&gt;UTF-8&lt;/span&gt;&quot;&amp;gt;&lt;/span&gt;&lt;/td&gt;&lt;/tr&gt;&lt;tr&gt;&lt;td value=&quot;5&quot; class=&quot;line-number&quot;&gt;&lt;/td&gt;&lt;td class=&quot;line-content&quot;&gt;    &lt;span class=&quot;html-tag&quot;&gt;&amp;lt;meta &lt;span class=&quot;html-attribute-name&quot;&gt;name&lt;/span&gt;=&quot;&lt;span class=&quot;html-attribute-value&quot;&gt;viewport&lt;/span&gt;&quot; &lt;span class=&quot;html-attribute-name&quot;&gt;content&lt;/span&gt;=&quot;&lt;span class=&quot;html-attribute-value&quot;&gt;width=device-width, initial-scale=1.0&lt;/span&gt;&quot;&amp;gt;&lt;/span&gt;&lt;/td&gt;&lt;/tr&gt;&lt;tr&gt;&lt;td value=&quot;6&quot; class=&quot;line-number&quot;&gt;&lt;/td&gt;&lt;td class=&quot;line-content&quot;&gt;    &lt;span class=&quot;html-tag&quot;&gt;&amp;lt;title&amp;gt;&lt;/span&gt;Excel to SQL Converter&lt;span class=&quot;html-tag&quot;&gt;&amp;lt;/title&amp;gt;&lt;/span&gt;&lt;/td&gt;&lt;/tr&gt;&lt;tr&gt;&lt;td value=&quot;7&quot; class=&quot;line-number&quot;&gt;&lt;/td&gt;&lt;td class=&quot;line-content&quot;&gt;    &lt;span class=&quot;html-tag&quot;&gt;&amp;lt;script &lt;span class=&quot;html-attribute-name&quot;&gt;src&lt;/span&gt;=&quot;&lt;a rel=&quot;noreferrer noopener&quot; href=&quot;https://cdnjs.cloudflare.com/ajax/libs/xlsx/0.17.0/xlsx.full.min.js&quot; target=&quot;_blank&quot; class=&quot;html-attribute-value html-resource-link&quot;&gt;https://cdnjs.cloudflare.com/ajax/libs/xlsx/0.17.0/xlsx.full.min.js&lt;/a&gt;&quot;&amp;gt;&lt;/span&gt;&lt;span class=&quot;html-tag&quot;&gt;&amp;lt;/script&amp;gt;&lt;/span&gt;&lt;/td&gt;&lt;/tr&gt;&lt;tr&gt;&lt;td value=&quot;8&quot; class=&quot;line-number&quot;&gt;&lt;/td&gt;&lt;td class=&quot;line-content&quot;&gt;&lt;span class=&quot;html-tag&quot;&gt;&amp;lt;/head&amp;gt;&lt;/span&gt;&lt;/td&gt;&lt;/tr&gt;&lt;tr&gt;&lt;td value=&quot;9&quot; class=&quot;line-number&quot;&gt;&lt;/td&gt;&lt;td class=&quot;line-content&quot;&gt;&lt;span class=&quot;html-tag&quot;&gt;&amp;lt;body&amp;gt;&lt;/span&gt;&lt;/td&gt;&lt;/tr&gt;&lt;tr&gt;&lt;td value=&quot;10&quot; class=&quot;line-number&quot;&gt;&lt;/td&gt;&lt;td class=&quot;line-content&quot;&gt;    &lt;span class=&quot;html-tag&quot;&gt;&amp;lt;h1&amp;gt;&lt;/span&gt;Excel to SQL Converter&lt;span class=&quot;html-tag&quot;&gt;&amp;lt;/h1&amp;gt;&lt;/span&gt;&lt;/td&gt;&lt;/tr&gt;&lt;tr&gt;&lt;td value=&quot;11&quot; class=&quot;line-number&quot;&gt;&lt;/td&gt;&lt;td class=&quot;line-content&quot;&gt;    &lt;span class=&quot;html-tag&quot;&gt;&amp;lt;input &lt;span class=&quot;html-attribute-name&quot;&gt;type&lt;/span&gt;=&quot;&lt;span class=&quot;html-attribute-value&quot;&gt;file&lt;/span&gt;&quot; &lt;span class=&quot;html-attribute-name&quot;&gt;id&lt;/span&gt;=&quot;&lt;span class=&quot;html-attribute-value&quot;&gt;fileInput&lt;/span&gt;&quot; /&amp;gt;&lt;/span&gt;&lt;/td&gt;&lt;/tr&gt;&lt;tr&gt;&lt;td value=&quot;12&quot; class=&quot;line-number&quot;&gt;&lt;/td&gt;&lt;td class=&quot;line-content&quot;&gt;    &lt;span class=&quot;html-tag&quot;&gt;&amp;lt;select &lt;span class=&quot;html-attribute-name&quot;&gt;id&lt;/span&gt;=&quot;&lt;span class=&quot;html-attribute-value&quot;&gt;sheetSelect&lt;/span&gt;&quot;&amp;gt;&lt;/span&gt;&lt;span class=&quot;html-tag&quot;&gt;&amp;lt;/select&amp;gt;&lt;/span&gt;&lt;/td&gt;&lt;/tr&gt;&lt;tr&gt;&lt;td value=&quot;13&quot; class=&quot;line-number&quot;&gt;&lt;/td&gt;&lt;td class=&quot;line-content&quot;&gt;    &lt;span class=&quot;html-tag&quot;&gt;&amp;lt;button &lt;span class=&quot;html-attribute-name&quot;&gt;onclick&lt;/span&gt;=&quot;&lt;span class=&quot;html-attribute-value&quot;&gt;generateCreateTable()&lt;/span&gt;&quot;&amp;gt;&lt;/span&gt;Generate CREATE TABLE&lt;span class=&quot;html-tag&quot;&gt;&amp;lt;/button&amp;gt;&lt;/span&gt;&lt;/td&gt;&lt;/tr&gt;&lt;tr&gt;&lt;td value=&quot;14&quot; class=&quot;line-number&quot;&gt;&lt;/td&gt;&lt;td class=&quot;line-content&quot;&gt;    &lt;span class=&quot;html-tag&quot;&gt;&amp;lt;button &lt;span class=&quot;html-attribute-name&quot;&gt;onclick&lt;/span&gt;=&quot;&lt;span class=&quot;html-attribute-value&quot;&gt;generateInsertInto()&lt;/span&gt;&quot;&amp;gt;&lt;/span&gt;Generate INSERT INTO&lt;span class=&quot;html-tag&quot;&gt;&amp;lt;/button&amp;gt;&lt;/span&gt;&lt;/td&gt;&lt;/tr&gt;&lt;tr&gt;&lt;td value=&quot;15&quot; class=&quot;line-number&quot;&gt;&lt;/td&gt;&lt;td class=&quot;line-content&quot;&gt;    &lt;span class=&quot;html-tag&quot;&gt;&amp;lt;textarea &lt;span class=&quot;html-attribute-name&quot;&gt;id&lt;/span&gt;=&quot;&lt;span class=&quot;html-attribute-value&quot;&gt;result&lt;/span&gt;&quot; &lt;span class=&quot;html-attribute-name&quot;&gt;rows&lt;/span&gt;=&quot;&lt;span class=&quot;html-attribute-value&quot;&gt;20&lt;/span&gt;&quot; &lt;span class=&quot;html-attribute-name&quot;&gt;cols&lt;/span&gt;=&quot;&lt;span class=&quot;html-attribute-value&quot;&gt;100&lt;/span&gt;&quot;&amp;gt;&lt;/span&gt;&lt;span class=&quot;html-tag&quot;&gt;&amp;lt;/textarea&amp;gt;&lt;/span&gt;&lt;/td&gt;&lt;/tr&gt;&lt;tr&gt;&lt;td value=&quot;16&quot; class=&quot;line-number&quot;&gt;&lt;/td&gt;&lt;td class=&quot;line-content&quot;&gt;&lt;br&gt;&lt;/td&gt;&lt;/tr&gt;&lt;tr&gt;&lt;td value=&quot;17&quot; class=&quot;line-number&quot;&gt;&lt;/td&gt;&lt;td class=&quot;line-content&quot;&gt;    &lt;span class=&quot;html-tag&quot;&gt;&amp;lt;script&amp;gt;&lt;/span&gt;&lt;/td&gt;&lt;/tr&gt;&lt;tr&gt;&lt;td value=&quot;18&quot; class=&quot;line-number&quot;&gt;&lt;/td&gt;&lt;td class=&quot;line-content&quot;&gt;        let workbook;&lt;/td&gt;&lt;/tr&gt;&lt;tr&gt;&lt;td value=&quot;19&quot; class=&quot;line-number&quot;&gt;&lt;/td&gt;&lt;td class=&quot;line-content&quot;&gt;        let sheetName;&lt;/td&gt;&lt;/tr&gt;&lt;tr&gt;&lt;td value=&quot;20&quot; class=&quot;line-number&quot;&gt;&lt;/td&gt;&lt;td class=&quot;line-content&quot;&gt;&lt;br&gt;&lt;/td&gt;&lt;/tr&gt;&lt;tr&gt;&lt;td value=&quot;21&quot; class=&quot;line-number&quot;&gt;&lt;/td&gt;&lt;td class=&quot;line-content&quot;&gt;        document.getElementById(&#39;fileInput&#39;).addEventListener(&#39;change&#39;, handleFile, false);&lt;/td&gt;&lt;/tr&gt;&lt;tr&gt;&lt;td value=&quot;22&quot; class=&quot;line-number&quot;&gt;&lt;/td&gt;&lt;td class=&quot;line-content&quot;&gt;&lt;br&gt;&lt;/td&gt;&lt;/tr&gt;&lt;tr&gt;&lt;td value=&quot;23&quot; class=&quot;line-number&quot;&gt;&lt;/td&gt;&lt;td class=&quot;line-content&quot;&gt;        function handleFile(e) {&lt;/td&gt;&lt;/tr&gt;&lt;tr&gt;&lt;td value=&quot;24&quot; class=&quot;line-number&quot;&gt;&lt;/td&gt;&lt;td class=&quot;line-content&quot;&gt;            const files = e.target.files;&lt;/td&gt;&lt;/tr&gt;&lt;tr&gt;&lt;td value=&quot;25&quot; class=&quot;line-number&quot;&gt;&lt;/td&gt;&lt;td class=&quot;line-content&quot;&gt;            const reader = new FileReader();&lt;/td&gt;&lt;/tr&gt;&lt;tr&gt;&lt;td value=&quot;26&quot; class=&quot;line-number&quot;&gt;&lt;/td&gt;&lt;td class=&quot;line-content&quot;&gt;            reader.onload = function(event) {&lt;/td&gt;&lt;/tr&gt;&lt;tr&gt;&lt;td value=&quot;27&quot; class=&quot;line-number&quot;&gt;&lt;/td&gt;&lt;td class=&quot;line-content&quot;&gt;                const data = new Uint8Array(event.target.result);&lt;/td&gt;&lt;/tr&gt;&lt;tr&gt;&lt;td value=&quot;28&quot; class=&quot;line-number&quot;&gt;&lt;/td&gt;&lt;td class=&quot;line-content&quot;&gt;                workbook = XLSX.read(data, {type: &#39;array&#39;});&lt;/td&gt;&lt;/tr&gt;&lt;tr&gt;&lt;td value=&quot;29&quot; class=&quot;line-number&quot;&gt;&lt;/td&gt;&lt;td class=&quot;line-content&quot;&gt;                const sheetSelect = document.getElementById(&#39;sheetSelect&#39;);&lt;/td&gt;&lt;/tr&gt;&lt;tr&gt;&lt;td value=&quot;30&quot; class=&quot;line-number&quot;&gt;&lt;/td&gt;&lt;td class=&quot;line-content&quot;&gt;                sheetSelect.innerHTML = &#39;&#39;;&lt;/td&gt;&lt;/tr&gt;&lt;tr&gt;&lt;td value=&quot;31&quot; class=&quot;line-number&quot;&gt;&lt;/td&gt;&lt;td class=&quot;line-content&quot;&gt;                workbook.SheetNames.forEach((name, index) =&amp;gt; {&lt;/td&gt;&lt;/tr&gt;&lt;tr&gt;&lt;td value=&quot;32&quot; class=&quot;line-number&quot;&gt;&lt;/td&gt;&lt;td class=&quot;line-content&quot;&gt;                    const option = document.createElement(&#39;option&#39;);&lt;/td&gt;&lt;/tr&gt;&lt;tr&gt;&lt;td value=&quot;33&quot; class=&quot;line-number&quot;&gt;&lt;/td&gt;&lt;td class=&quot;line-content&quot;&gt;                    option.value = name;&lt;/td&gt;&lt;/tr&gt;&lt;tr&gt;&lt;td value=&quot;34&quot; class=&quot;line-number&quot;&gt;&lt;/td&gt;&lt;td class=&quot;line-content&quot;&gt;                    option.text = name;&lt;/td&gt;&lt;/tr&gt;&lt;tr&gt;&lt;td value=&quot;35&quot; class=&quot;line-number&quot;&gt;&lt;/td&gt;&lt;td class=&quot;line-content&quot;&gt;                    sheetSelect.appendChild(option);&lt;/td&gt;&lt;/tr&gt;&lt;tr&gt;&lt;td value=&quot;36&quot; class=&quot;line-number&quot;&gt;&lt;/td&gt;&lt;td class=&quot;line-content&quot;&gt;                });&lt;/td&gt;&lt;/tr&gt;&lt;tr&gt;&lt;td value=&quot;37&quot; class=&quot;line-number&quot;&gt;&lt;/td&gt;&lt;td class=&quot;line-content&quot;&gt;            };&lt;/td&gt;&lt;/tr&gt;&lt;tr&gt;&lt;td value=&quot;38&quot; class=&quot;line-number&quot;&gt;&lt;/td&gt;&lt;td class=&quot;line-content&quot;&gt;            reader.readAsArrayBuffer(files[0]);&lt;/td&gt;&lt;/tr&gt;&lt;tr&gt;&lt;td value=&quot;39&quot; class=&quot;line-number&quot;&gt;&lt;/td&gt;&lt;td class=&quot;line-content&quot;&gt;        }&lt;/td&gt;&lt;/tr&gt;&lt;tr&gt;&lt;td value=&quot;40&quot; class=&quot;line-number&quot;&gt;&lt;/td&gt;&lt;td class=&quot;line-content&quot;&gt;&lt;br&gt;&lt;/td&gt;&lt;/tr&gt;&lt;tr&gt;&lt;td value=&quot;41&quot; class=&quot;line-number&quot;&gt;&lt;/td&gt;&lt;td class=&quot;line-content&quot;&gt;        function sanitizeName(name) {&lt;/td&gt;&lt;/tr&gt;&lt;tr&gt;&lt;td value=&quot;42&quot; class=&quot;line-number&quot;&gt;&lt;/td&gt;&lt;td class=&quot;line-content&quot;&gt;            return name.replace(/[^a-zA-Z0-9]/g, &#39;_&#39;).replace(/^[0-9]/, (match) =&amp;gt; `_${match}`);&lt;/td&gt;&lt;/tr&gt;&lt;tr&gt;&lt;td value=&quot;43&quot; class=&quot;line-number&quot;&gt;&lt;/td&gt;&lt;td class=&quot;line-content&quot;&gt;        }&lt;/td&gt;&lt;/tr&gt;&lt;tr&gt;&lt;td value=&quot;44&quot; class=&quot;line-number&quot;&gt;&lt;/td&gt;&lt;td class=&quot;line-content&quot;&gt;&lt;br&gt;&lt;/td&gt;&lt;/tr&gt;&lt;tr&gt;&lt;td value=&quot;45&quot; class=&quot;line-number&quot;&gt;&lt;/td&gt;&lt;td class=&quot;line-content&quot;&gt;        function generateCreateTable() {&lt;/td&gt;&lt;/tr&gt;&lt;tr&gt;&lt;td value=&quot;46&quot; class=&quot;line-number&quot;&gt;&lt;/td&gt;&lt;td class=&quot;line-content&quot;&gt;            sheetName = document.getElementById(&#39;sheetSelect&#39;).value;&lt;/td&gt;&lt;/tr&gt;&lt;tr&gt;&lt;td value=&quot;47&quot; class=&quot;line-number&quot;&gt;&lt;/td&gt;&lt;td class=&quot;line-content&quot;&gt;            const sheet = workbook.Sheets[sheetName];&lt;/td&gt;&lt;/tr&gt;&lt;tr&gt;&lt;td value=&quot;48&quot; class=&quot;line-number&quot;&gt;&lt;/td&gt;&lt;td class=&quot;line-content&quot;&gt;            const headers = [];&lt;/td&gt;&lt;/tr&gt;&lt;tr&gt;&lt;td value=&quot;49&quot; class=&quot;line-number&quot;&gt;&lt;/td&gt;&lt;td class=&quot;line-content&quot;&gt;            const range = XLSX.utils.decode_range(sheet[&#39;!ref&#39;]);&lt;/td&gt;&lt;/tr&gt;&lt;tr&gt;&lt;td value=&quot;50&quot; class=&quot;line-number&quot;&gt;&lt;/td&gt;&lt;td class=&quot;line-content&quot;&gt;            for (let C = range.s.c; C &amp;lt;= range.e.c; ++C) {&lt;/td&gt;&lt;/tr&gt;&lt;tr&gt;&lt;td value=&quot;51&quot; class=&quot;line-number&quot;&gt;&lt;/td&gt;&lt;td class=&quot;line-content&quot;&gt;                const cell = sheet[XLSX.utils.encode_cell({r: range.s.r, c: C})];&lt;/td&gt;&lt;/tr&gt;&lt;tr&gt;&lt;td value=&quot;52&quot; class=&quot;line-number&quot;&gt;&lt;/td&gt;&lt;td class=&quot;line-content&quot;&gt;                let header = cell ? cell.v : `Column${C + 1}`;&lt;/td&gt;&lt;/tr&gt;&lt;tr&gt;&lt;td value=&quot;53&quot; class=&quot;line-number&quot;&gt;&lt;/td&gt;&lt;td class=&quot;line-content&quot;&gt;                header = sanitizeName(header);&lt;/td&gt;&lt;/tr&gt;&lt;tr&gt;&lt;td value=&quot;54&quot; class=&quot;line-number&quot;&gt;&lt;/td&gt;&lt;td class=&quot;line-content&quot;&gt;                headers.push(header);&lt;/td&gt;&lt;/tr&gt;&lt;tr&gt;&lt;td value=&quot;55&quot; class=&quot;line-number&quot;&gt;&lt;/td&gt;&lt;td class=&quot;line-content&quot;&gt;            }&lt;/td&gt;&lt;/tr&gt;&lt;tr&gt;&lt;td value=&quot;56&quot; class=&quot;line-number&quot;&gt;&lt;/td&gt;&lt;td class=&quot;line-content&quot;&gt;            const tableName = sanitizeName(sheetName);&lt;/td&gt;&lt;/tr&gt;&lt;tr&gt;&lt;td value=&quot;57&quot; class=&quot;line-number&quot;&gt;&lt;/td&gt;&lt;td class=&quot;line-content&quot;&gt;            let createTableSQL = `CREATE TABLE ${tableName} (\n`;&lt;/td&gt;&lt;/tr&gt;&lt;tr&gt;&lt;td value=&quot;58&quot; class=&quot;line-number&quot;&gt;&lt;/td&gt;&lt;td class=&quot;line-content&quot;&gt;            headers.forEach((header, index) =&amp;gt; {&lt;/td&gt;&lt;/tr&gt;&lt;tr&gt;&lt;td value=&quot;59&quot; class=&quot;line-number&quot;&gt;&lt;/td&gt;&lt;td class=&quot;line-content&quot;&gt;                createTableSQL += `  ${header} TEXT${index &amp;lt; headers.length - 1 ? &#39;,&#39; : &#39;&#39;}\n`;&lt;/td&gt;&lt;/tr&gt;&lt;tr&gt;&lt;td value=&quot;60&quot; class=&quot;line-number&quot;&gt;&lt;/td&gt;&lt;td class=&quot;line-content&quot;&gt;            });&lt;/td&gt;&lt;/tr&gt;&lt;tr&gt;&lt;td value=&quot;61&quot; class=&quot;line-number&quot;&gt;&lt;/td&gt;&lt;td class=&quot;line-content&quot;&gt;            createTableSQL += &#39;);&#39;;&lt;/td&gt;&lt;/tr&gt;&lt;tr&gt;&lt;td value=&quot;62&quot; class=&quot;line-number&quot;&gt;&lt;/td&gt;&lt;td class=&quot;line-content&quot;&gt;            document.getElementById(&#39;result&#39;).value = createTableSQL;&lt;/td&gt;&lt;/tr&gt;&lt;tr&gt;&lt;td value=&quot;63&quot; class=&quot;line-number&quot;&gt;&lt;/td&gt;&lt;td class=&quot;line-content&quot;&gt;        }&lt;/td&gt;&lt;/tr&gt;&lt;tr&gt;&lt;td value=&quot;64&quot; class=&quot;line-number&quot;&gt;&lt;/td&gt;&lt;td class=&quot;line-content&quot;&gt;&lt;br&gt;&lt;/td&gt;&lt;/tr&gt;&lt;tr&gt;&lt;td value=&quot;65&quot; class=&quot;line-number&quot;&gt;&lt;/td&gt;&lt;td class=&quot;line-content&quot;&gt;        function generateInsertInto() {&lt;/td&gt;&lt;/tr&gt;&lt;tr&gt;&lt;td value=&quot;66&quot; class=&quot;line-number&quot;&gt;&lt;/td&gt;&lt;td class=&quot;line-content&quot;&gt;            sheetName = document.getElementById(&#39;sheetSelect&#39;).value;&lt;/td&gt;&lt;/tr&gt;&lt;tr&gt;&lt;td value=&quot;67&quot; class=&quot;line-number&quot;&gt;&lt;/td&gt;&lt;td class=&quot;line-content&quot;&gt;            const sheet = workbook.Sheets[sheetName];&lt;/td&gt;&lt;/tr&gt;&lt;tr&gt;&lt;td value=&quot;68&quot; class=&quot;line-number&quot;&gt;&lt;/td&gt;&lt;td class=&quot;line-content&quot;&gt;            const headers = [];&lt;/td&gt;&lt;/tr&gt;&lt;tr&gt;&lt;td value=&quot;69&quot; class=&quot;line-number&quot;&gt;&lt;/td&gt;&lt;td class=&quot;line-content&quot;&gt;            const range = XLSX.utils.decode_range(sheet[&#39;!ref&#39;]);&lt;/td&gt;&lt;/tr&gt;&lt;tr&gt;&lt;td value=&quot;70&quot; class=&quot;line-number&quot;&gt;&lt;/td&gt;&lt;td class=&quot;line-content&quot;&gt;            for (let C = range.s.c; C &amp;lt;= range.e.c; ++C) {&lt;/td&gt;&lt;/tr&gt;&lt;tr&gt;&lt;td value=&quot;71&quot; class=&quot;line-number&quot;&gt;&lt;/td&gt;&lt;td class=&quot;line-content&quot;&gt;                const cell = sheet[XLSX.utils.encode_cell({r: range.s.r, c: C})];&lt;/td&gt;&lt;/tr&gt;&lt;tr&gt;&lt;td value=&quot;72&quot; class=&quot;line-number&quot;&gt;&lt;/td&gt;&lt;td class=&quot;line-content&quot;&gt;                let header = cell ? cell.v : `Column${C + 1}`;&lt;/td&gt;&lt;/tr&gt;&lt;tr&gt;&lt;td value=&quot;73&quot; class=&quot;line-number&quot;&gt;&lt;/td&gt;&lt;td class=&quot;line-content&quot;&gt;                header = sanitizeName(header);&lt;/td&gt;&lt;/tr&gt;&lt;tr&gt;&lt;td value=&quot;74&quot; class=&quot;line-number&quot;&gt;&lt;/td&gt;&lt;td class=&quot;line-content&quot;&gt;                headers.push(header);&lt;/td&gt;&lt;/tr&gt;&lt;tr&gt;&lt;td value=&quot;75&quot; class=&quot;line-number&quot;&gt;&lt;/td&gt;&lt;td class=&quot;line-content&quot;&gt;            }&lt;/td&gt;&lt;/tr&gt;&lt;tr&gt;&lt;td value=&quot;76&quot; class=&quot;line-number&quot;&gt;&lt;/td&gt;&lt;td class=&quot;line-content&quot;&gt;            const tableName = sanitizeName(sheetName);&lt;/td&gt;&lt;/tr&gt;&lt;tr&gt;&lt;td value=&quot;77&quot; class=&quot;line-number&quot;&gt;&lt;/td&gt;&lt;td class=&quot;line-content&quot;&gt;            let insertIntoSQL = &#39;&#39;;&lt;/td&gt;&lt;/tr&gt;&lt;tr&gt;&lt;td value=&quot;78&quot; class=&quot;line-number&quot;&gt;&lt;/td&gt;&lt;td class=&quot;line-content&quot;&gt;            for (let R = range.s.r + 1; R &amp;lt;= range.e.r; ++R) {&lt;/td&gt;&lt;/tr&gt;&lt;tr&gt;&lt;td value=&quot;79&quot; class=&quot;line-number&quot;&gt;&lt;/td&gt;&lt;td class=&quot;line-content&quot;&gt;                let values = [];&lt;/td&gt;&lt;/tr&gt;&lt;tr&gt;&lt;td value=&quot;80&quot; class=&quot;line-number&quot;&gt;&lt;/td&gt;&lt;td class=&quot;line-content&quot;&gt;                for (let C = range.s.c; C &amp;lt;= range.e.c; ++C) {&lt;/td&gt;&lt;/tr&gt;&lt;tr&gt;&lt;td value=&quot;81&quot; class=&quot;line-number&quot;&gt;&lt;/td&gt;&lt;td class=&quot;line-content&quot;&gt;                    const cell = sheet[XLSX.utils.encode_cell({r: R, c: C})];&lt;/td&gt;&lt;/tr&gt;&lt;tr&gt;&lt;td value=&quot;82&quot; class=&quot;line-number&quot;&gt;&lt;/td&gt;&lt;td class=&quot;line-content&quot;&gt;                    let value = cell ? cell.v : &#39;&#39;;&lt;/td&gt;&lt;/tr&gt;&lt;tr&gt;&lt;td value=&quot;83&quot; class=&quot;line-number&quot;&gt;&lt;/td&gt;&lt;td class=&quot;line-content&quot;&gt;                    value = typeof value === &#39;string&#39; ? `&#39;${value.replace(/&#39;/g, &quot;&#39;&#39;&quot;)}&#39;` : value;&lt;/td&gt;&lt;/tr&gt;&lt;tr&gt;&lt;td value=&quot;84&quot; class=&quot;line-number&quot;&gt;&lt;/td&gt;&lt;td class=&quot;line-content&quot;&gt;                    values.push(value);&lt;/td&gt;&lt;/tr&gt;&lt;tr&gt;&lt;td value=&quot;85&quot; class=&quot;line-number&quot;&gt;&lt;/td&gt;&lt;td class=&quot;line-content&quot;&gt;                }&lt;/td&gt;&lt;/tr&gt;&lt;tr&gt;&lt;td value=&quot;86&quot; class=&quot;line-number&quot;&gt;&lt;/td&gt;&lt;td class=&quot;line-content&quot;&gt;                insertIntoSQL += `INSERT INTO ${tableName} (${headers.join(&#39;, &#39;)}) VALUES (${values.join(&#39;, &#39;)});\n`;&lt;/td&gt;&lt;/tr&gt;&lt;tr&gt;&lt;td value=&quot;87&quot; class=&quot;line-number&quot;&gt;&lt;/td&gt;&lt;td class=&quot;line-content&quot;&gt;            }&lt;/td&gt;&lt;/tr&gt;&lt;tr&gt;&lt;td value=&quot;88&quot; class=&quot;line-number&quot;&gt;&lt;/td&gt;&lt;td class=&quot;line-content&quot;&gt;            document.getElementById(&#39;result&#39;).value = insertIntoSQL;&lt;/td&gt;&lt;/tr&gt;&lt;tr&gt;&lt;td value=&quot;89&quot; class=&quot;line-number&quot;&gt;&lt;/td&gt;&lt;td class=&quot;line-content&quot;&gt;        }&lt;/td&gt;&lt;/tr&gt;&lt;tr&gt;&lt;td value=&quot;90&quot; class=&quot;line-number&quot;&gt;&lt;/td&gt;&lt;td class=&quot;line-content&quot;&gt;    &lt;span class=&quot;html-tag&quot;&gt;&amp;lt;/script&amp;gt;&lt;/span&gt;&lt;/td&gt;&lt;/tr&gt;&lt;tr&gt;&lt;td value=&quot;91&quot; class=&quot;line-number&quot;&gt;&lt;/td&gt;&lt;td class=&quot;line-content&quot;&gt;&lt;span class=&quot;html-tag&quot;&gt;&amp;lt;/body&amp;gt;&lt;/span&gt;&lt;/td&gt;&lt;/tr&gt;&lt;tr&gt;&lt;td value=&quot;92&quot; class=&quot;line-number&quot;&gt;&lt;/td&gt;&lt;td class=&quot;line-content&quot;&gt;&lt;span class=&quot;html-tag&quot;&gt;&amp;lt;/html&amp;gt;&lt;/span&gt;&lt;/td&gt;&lt;/tr&gt;&lt;tr&gt;&lt;td value=&quot;93&quot; class=&quot;line-number&quot;&gt;&lt;/td&gt;&lt;td class=&quot;line-content&quot;&gt;&lt;span class=&quot;html-end-of-file&quot;&gt;&lt;/span&gt;&lt;/td&gt;&lt;/tr&gt;&lt;/tbody&gt;&lt;/table&gt;" style="shape=note;whiteSpace=wrap;html=1;backgroundOutline=1;fontColor=#000000;darkOpacity=0.05;fillColor=#FFF9B2;strokeColor=none;fillStyle=solid;direction=west;gradientDirection=north;gradientColor=#FFF2A1;shadow=1;size=20;pointerEvents=1;" vertex="1" parent="1">
          <mxGeometry x="-75" y="3" width="140" height="160" as="geometry" />
        </mxCell>
      </root>
    </mxGraphModel>
  </diagram>
</mxfile>
